<mxfile host="app.diagrams.net" modified="2023-11-28T18:46:35.952Z" agent="Mozilla/5.0 (Windows NT 10.0; Win64; x64; rv:120.0) Gecko/20100101 Firefox/120.0" etag="Pav0QcOrtDFxMWMWhTla" version="21.3.7" type="device">
  <diagram name="Page-1" id="c7488fd3-1785-93aa-aadb-54a6760d102a">
    <mxGraphModel dx="850" dy="757" grid="1" gridSize="10" guides="1" tooltips="1" connect="1" arrows="1" fold="1" page="1" pageScale="1" pageWidth="1100" pageHeight="850" background="none" math="0" shadow="0">
      <root>
        <mxCell id="0" />
        <mxCell id="1" parent="0" />
        <mxCell id="CDbokZhid0h3c1UekMTh-214" value="Access Granting" style="swimlane;html=1;childLayout=stackLayout;horizontal=1;startSize=20;horizontalStack=0;rounded=0;shadow=0;labelBackgroundColor=none;strokeWidth=1;fontFamily=Verdana;fontSize=8;align=center;" parent="1" vertex="1">
          <mxGeometry x="60" y="140" width="780" height="480" as="geometry" />
        </mxCell>
        <mxCell id="CDbokZhid0h3c1UekMTh-215" value="Educator" style="swimlane;html=1;startSize=20;horizontal=0;" parent="CDbokZhid0h3c1UekMTh-214" vertex="1">
          <mxGeometry y="20" width="780" height="210" as="geometry" />
        </mxCell>
        <mxCell id="PWZpDbweVa0cq_8GeGo4-52" style="edgeStyle=orthogonalEdgeStyle;rounded=0;orthogonalLoop=1;jettySize=auto;html=1;entryX=0;entryY=0.5;entryDx=0;entryDy=0;" edge="1" parent="CDbokZhid0h3c1UekMTh-215" source="PWZpDbweVa0cq_8GeGo4-51" target="PWZpDbweVa0cq_8GeGo4-50">
          <mxGeometry relative="1" as="geometry" />
        </mxCell>
        <mxCell id="PWZpDbweVa0cq_8GeGo4-51" value="" style="points=[[0.145,0.145,0],[0.5,0,0],[0.855,0.145,0],[1,0.5,0],[0.855,0.855,0],[0.5,1,0],[0.145,0.855,0],[0,0.5,0]];shape=mxgraph.bpmn.event;html=1;verticalLabelPosition=bottom;labelBackgroundColor=#ffffff;verticalAlign=top;align=center;perimeter=ellipsePerimeter;outlineConnect=0;aspect=fixed;outline=standard;symbol=general;" vertex="1" parent="CDbokZhid0h3c1UekMTh-215">
          <mxGeometry x="40" y="86.5" width="37" height="37" as="geometry" />
        </mxCell>
        <mxCell id="PWZpDbweVa0cq_8GeGo4-61" style="edgeStyle=orthogonalEdgeStyle;rounded=0;orthogonalLoop=1;jettySize=auto;html=1;entryX=0;entryY=0.5;entryDx=0;entryDy=0;entryPerimeter=0;" edge="1" parent="CDbokZhid0h3c1UekMTh-215" source="PWZpDbweVa0cq_8GeGo4-50" target="PWZpDbweVa0cq_8GeGo4-60">
          <mxGeometry relative="1" as="geometry" />
        </mxCell>
        <mxCell id="PWZpDbweVa0cq_8GeGo4-50" value="" style="rounded=1;whiteSpace=wrap;html=1;" vertex="1" parent="CDbokZhid0h3c1UekMTh-215">
          <mxGeometry x="115" y="85" width="80" height="40" as="geometry" />
        </mxCell>
        <mxCell id="PWZpDbweVa0cq_8GeGo4-54" value="&lt;div&gt;Accesses one of&lt;/div&gt;&lt;div&gt;his tournaments&lt;br&gt;&lt;/div&gt;" style="text;html=1;align=center;verticalAlign=middle;resizable=0;points=[];autosize=1;strokeColor=none;fillColor=none;" vertex="1" parent="CDbokZhid0h3c1UekMTh-215">
          <mxGeometry x="100" y="123.5" width="110" height="40" as="geometry" />
        </mxCell>
        <mxCell id="PWZpDbweVa0cq_8GeGo4-71" style="edgeStyle=orthogonalEdgeStyle;rounded=0;orthogonalLoop=1;jettySize=auto;html=1;entryX=0;entryY=0.5;entryDx=0;entryDy=0;entryPerimeter=0;" edge="1" parent="CDbokZhid0h3c1UekMTh-215" source="PWZpDbweVa0cq_8GeGo4-55" target="PWZpDbweVa0cq_8GeGo4-70">
          <mxGeometry relative="1" as="geometry" />
        </mxCell>
        <mxCell id="PWZpDbweVa0cq_8GeGo4-55" value="&lt;div&gt;Other&lt;/div&gt;&lt;div&gt;educator&#39;s&lt;/div&gt;&lt;div&gt;name&lt;br&gt;&lt;/div&gt;" style="points=[[0.25,0,0],[0.5,0,0],[0.75,0,0],[1,0.25,0],[1,0.5,0],[1,0.75,0],[0.75,1,0],[0.5,1,0],[0.25,1,0],[0,0.75,0],[0,0.5,0],[0,0.25,0]];shape=mxgraph.bpmn.task;whiteSpace=wrap;rectStyle=rounded;size=10;html=1;container=1;expand=0;collapsible=0;taskMarker=send;" vertex="1" parent="CDbokZhid0h3c1UekMTh-215">
          <mxGeometry x="300" y="83.5" width="90" height="43" as="geometry" />
        </mxCell>
        <mxCell id="PWZpDbweVa0cq_8GeGo4-57" value="&lt;div&gt;Sends request to&lt;/div&gt;&lt;div&gt;grant edit permission&lt;/div&gt;&lt;div&gt;to another educator&lt;br&gt;&lt;/div&gt;" style="text;html=1;align=center;verticalAlign=middle;resizable=0;points=[];autosize=1;strokeColor=none;fillColor=none;" vertex="1" parent="CDbokZhid0h3c1UekMTh-215">
          <mxGeometry x="275" y="123.5" width="140" height="60" as="geometry" />
        </mxCell>
        <mxCell id="PWZpDbweVa0cq_8GeGo4-62" style="edgeStyle=orthogonalEdgeStyle;rounded=0;orthogonalLoop=1;jettySize=auto;html=1;" edge="1" parent="CDbokZhid0h3c1UekMTh-215" source="PWZpDbweVa0cq_8GeGo4-60" target="PWZpDbweVa0cq_8GeGo4-55">
          <mxGeometry relative="1" as="geometry" />
        </mxCell>
        <mxCell id="PWZpDbweVa0cq_8GeGo4-60" value="" style="points=[[0.25,0.25,0],[0.5,0,0],[0.75,0.25,0],[1,0.5,0],[0.75,0.75,0],[0.5,1,0],[0.25,0.75,0],[0,0.5,0]];shape=mxgraph.bpmn.gateway2;html=1;verticalLabelPosition=bottom;labelBackgroundColor=#ffffff;verticalAlign=top;align=center;perimeter=rhombusPerimeter;outlineConnect=0;outline=none;symbol=none;gwType=exclusive;" vertex="1" parent="CDbokZhid0h3c1UekMTh-215">
          <mxGeometry x="245" y="90" width="30" height="30" as="geometry" />
        </mxCell>
        <mxCell id="PWZpDbweVa0cq_8GeGo4-73" style="edgeStyle=orthogonalEdgeStyle;rounded=0;orthogonalLoop=1;jettySize=auto;html=1;" edge="1" parent="CDbokZhid0h3c1UekMTh-215" source="PWZpDbweVa0cq_8GeGo4-70" target="PWZpDbweVa0cq_8GeGo4-72">
          <mxGeometry relative="1" as="geometry">
            <Array as="points">
              <mxPoint x="465" y="30" />
            </Array>
          </mxGeometry>
        </mxCell>
        <mxCell id="PWZpDbweVa0cq_8GeGo4-114" style="edgeStyle=orthogonalEdgeStyle;rounded=0;orthogonalLoop=1;jettySize=auto;html=1;entryX=0;entryY=0.5;entryDx=0;entryDy=0;entryPerimeter=0;" edge="1" parent="CDbokZhid0h3c1UekMTh-215" source="PWZpDbweVa0cq_8GeGo4-70" target="PWZpDbweVa0cq_8GeGo4-113">
          <mxGeometry relative="1" as="geometry" />
        </mxCell>
        <mxCell id="PWZpDbweVa0cq_8GeGo4-70" value="" style="points=[[0.25,0.25,0],[0.5,0,0],[0.75,0.25,0],[1,0.5,0],[0.75,0.75,0],[0.5,1,0],[0.25,0.75,0],[0,0.5,0]];shape=mxgraph.bpmn.gateway2;html=1;verticalLabelPosition=bottom;labelBackgroundColor=#ffffff;verticalAlign=top;align=center;perimeter=rhombusPerimeter;outlineConnect=0;outline=catching;symbol=multiple;" vertex="1" parent="CDbokZhid0h3c1UekMTh-215">
          <mxGeometry x="440" y="80" width="50" height="50" as="geometry" />
        </mxCell>
        <mxCell id="PWZpDbweVa0cq_8GeGo4-74" style="edgeStyle=orthogonalEdgeStyle;rounded=0;orthogonalLoop=1;jettySize=auto;html=1;" edge="1" parent="CDbokZhid0h3c1UekMTh-215" source="PWZpDbweVa0cq_8GeGo4-72" target="PWZpDbweVa0cq_8GeGo4-60">
          <mxGeometry relative="1" as="geometry" />
        </mxCell>
        <mxCell id="PWZpDbweVa0cq_8GeGo4-72" value="&lt;div&gt;Receive error&lt;/div&gt;&lt;div&gt;message&lt;br&gt;&lt;/div&gt;" style="points=[[0.145,0.145,0],[0.5,0,0],[0.855,0.145,0],[1,0.5,0],[0.855,0.855,0],[0.5,1,0],[0.145,0.855,0],[0,0.5,0]];shape=mxgraph.bpmn.event;html=1;verticalLabelPosition=bottom;labelBackgroundColor=#ffffff;verticalAlign=top;align=center;perimeter=ellipsePerimeter;outlineConnect=0;aspect=fixed;outline=catching;symbol=message;" vertex="1" parent="CDbokZhid0h3c1UekMTh-215">
          <mxGeometry x="382" y="10" width="33" height="33" as="geometry" />
        </mxCell>
        <mxCell id="PWZpDbweVa0cq_8GeGo4-116" style="edgeStyle=orthogonalEdgeStyle;rounded=0;orthogonalLoop=1;jettySize=auto;html=1;entryX=0;entryY=0.5;entryDx=0;entryDy=0;entryPerimeter=0;" edge="1" parent="CDbokZhid0h3c1UekMTh-215" source="PWZpDbweVa0cq_8GeGo4-113" target="PWZpDbweVa0cq_8GeGo4-115">
          <mxGeometry relative="1" as="geometry" />
        </mxCell>
        <mxCell id="PWZpDbweVa0cq_8GeGo4-113" value="&lt;div&gt;Receive&lt;/div&gt;&lt;div&gt;answer&lt;br&gt;&lt;/div&gt;" style="points=[[0.145,0.145,0],[0.5,0,0],[0.855,0.145,0],[1,0.5,0],[0.855,0.855,0],[0.5,1,0],[0.145,0.855,0],[0,0.5,0]];shape=mxgraph.bpmn.event;html=1;verticalLabelPosition=bottom;labelBackgroundColor=#ffffff;verticalAlign=top;align=center;perimeter=ellipsePerimeter;outlineConnect=0;aspect=fixed;outline=catching;symbol=message;" vertex="1" parent="CDbokZhid0h3c1UekMTh-215">
          <mxGeometry x="540" y="88.5" width="33" height="33" as="geometry" />
        </mxCell>
        <mxCell id="PWZpDbweVa0cq_8GeGo4-115" value="" style="points=[[0.145,0.145,0],[0.5,0,0],[0.855,0.145,0],[1,0.5,0],[0.855,0.855,0],[0.5,1,0],[0.145,0.855,0],[0,0.5,0]];shape=mxgraph.bpmn.event;html=1;verticalLabelPosition=bottom;labelBackgroundColor=#ffffff;verticalAlign=top;align=center;perimeter=ellipsePerimeter;outlineConnect=0;aspect=fixed;outline=end;symbol=terminate2;" vertex="1" parent="CDbokZhid0h3c1UekMTh-215">
          <mxGeometry x="620" y="90" width="30" height="30" as="geometry" />
        </mxCell>
        <mxCell id="CDbokZhid0h3c1UekMTh-308" value="Platform" style="swimlane;html=1;startSize=20;horizontal=0;" parent="CDbokZhid0h3c1UekMTh-214" vertex="1">
          <mxGeometry y="230" width="780" height="250" as="geometry" />
        </mxCell>
        <mxCell id="PWZpDbweVa0cq_8GeGo4-65" style="edgeStyle=orthogonalEdgeStyle;rounded=0;orthogonalLoop=1;jettySize=auto;html=1;entryX=0;entryY=0.5;entryDx=0;entryDy=0;" edge="1" parent="CDbokZhid0h3c1UekMTh-308" source="PWZpDbweVa0cq_8GeGo4-58" target="PWZpDbweVa0cq_8GeGo4-64">
          <mxGeometry relative="1" as="geometry" />
        </mxCell>
        <mxCell id="PWZpDbweVa0cq_8GeGo4-58" value="&lt;div&gt;Receive&lt;/div&gt;&lt;div&gt;request&lt;br&gt;&lt;/div&gt;" style="points=[[0.145,0.145,0],[0.5,0,0],[0.855,0.145,0],[1,0.5,0],[0.855,0.855,0],[0.5,1,0],[0.145,0.855,0],[0,0.5,0]];shape=mxgraph.bpmn.event;html=1;verticalLabelPosition=bottom;labelBackgroundColor=#ffffff;verticalAlign=top;align=center;perimeter=ellipsePerimeter;outlineConnect=0;aspect=fixed;outline=catching;symbol=message;" vertex="1" parent="CDbokZhid0h3c1UekMTh-308">
          <mxGeometry x="40" y="98.5" width="33" height="33" as="geometry" />
        </mxCell>
        <mxCell id="PWZpDbweVa0cq_8GeGo4-69" style="edgeStyle=orthogonalEdgeStyle;rounded=0;orthogonalLoop=1;jettySize=auto;html=1;" edge="1" parent="CDbokZhid0h3c1UekMTh-308" source="PWZpDbweVa0cq_8GeGo4-63" target="PWZpDbweVa0cq_8GeGo4-44">
          <mxGeometry relative="1" as="geometry">
            <Array as="points">
              <mxPoint x="245" y="70" />
            </Array>
          </mxGeometry>
        </mxCell>
        <mxCell id="PWZpDbweVa0cq_8GeGo4-76" style="edgeStyle=orthogonalEdgeStyle;rounded=0;orthogonalLoop=1;jettySize=auto;html=1;" edge="1" parent="CDbokZhid0h3c1UekMTh-308" source="PWZpDbweVa0cq_8GeGo4-63" target="PWZpDbweVa0cq_8GeGo4-75">
          <mxGeometry relative="1" as="geometry">
            <Array as="points">
              <mxPoint x="245" y="150" />
            </Array>
          </mxGeometry>
        </mxCell>
        <mxCell id="PWZpDbweVa0cq_8GeGo4-63" value="" style="points=[[0.25,0.25,0],[0.5,0,0],[0.75,0.25,0],[1,0.5,0],[0.75,0.75,0],[0.5,1,0],[0.25,0.75,0],[0,0.5,0]];shape=mxgraph.bpmn.gateway2;html=1;verticalLabelPosition=bottom;labelBackgroundColor=#ffffff;verticalAlign=top;align=center;perimeter=rhombusPerimeter;outlineConnect=0;outline=none;symbol=none;gwType=exclusive;" vertex="1" parent="CDbokZhid0h3c1UekMTh-308">
          <mxGeometry x="230" y="100" width="30" height="30" as="geometry" />
        </mxCell>
        <mxCell id="PWZpDbweVa0cq_8GeGo4-66" style="edgeStyle=orthogonalEdgeStyle;rounded=0;orthogonalLoop=1;jettySize=auto;html=1;entryX=0;entryY=0.5;entryDx=0;entryDy=0;entryPerimeter=0;" edge="1" parent="CDbokZhid0h3c1UekMTh-308" source="PWZpDbweVa0cq_8GeGo4-64" target="PWZpDbweVa0cq_8GeGo4-63">
          <mxGeometry relative="1" as="geometry" />
        </mxCell>
        <mxCell id="PWZpDbweVa0cq_8GeGo4-64" value="" style="rounded=1;whiteSpace=wrap;html=1;" vertex="1" parent="CDbokZhid0h3c1UekMTh-308">
          <mxGeometry x="110" y="95" width="80" height="40" as="geometry" />
        </mxCell>
        <mxCell id="PWZpDbweVa0cq_8GeGo4-67" value="Analyse request" style="text;html=1;align=center;verticalAlign=middle;resizable=0;points=[];autosize=1;strokeColor=none;fillColor=none;" vertex="1" parent="CDbokZhid0h3c1UekMTh-308">
          <mxGeometry x="95" y="131.5" width="110" height="30" as="geometry" />
        </mxCell>
        <mxCell id="PWZpDbweVa0cq_8GeGo4-102" style="edgeStyle=orthogonalEdgeStyle;rounded=0;orthogonalLoop=1;jettySize=auto;html=1;entryX=0;entryY=0.5;entryDx=0;entryDy=0;entryPerimeter=0;" edge="1" parent="CDbokZhid0h3c1UekMTh-308" source="PWZpDbweVa0cq_8GeGo4-44" target="PWZpDbweVa0cq_8GeGo4-48">
          <mxGeometry relative="1" as="geometry" />
        </mxCell>
        <mxCell id="PWZpDbweVa0cq_8GeGo4-44" value="&lt;div&gt;Send error&lt;/div&gt;&lt;div&gt;message&lt;br&gt;&lt;/div&gt;" style="points=[[0.145,0.145,0],[0.5,0,0],[0.855,0.145,0],[1,0.5,0],[0.855,0.855,0],[0.5,1,0],[0.145,0.855,0],[0,0.5,0]];shape=mxgraph.bpmn.event;html=1;verticalLabelPosition=bottom;labelBackgroundColor=#ffffff;verticalAlign=top;align=center;perimeter=ellipsePerimeter;outlineConnect=0;aspect=fixed;outline=throwing;symbol=message;" vertex="1" parent="CDbokZhid0h3c1UekMTh-308">
          <mxGeometry x="280.00117647058823" y="50" width="35" height="35" as="geometry" />
        </mxCell>
        <mxCell id="PWZpDbweVa0cq_8GeGo4-104" value="" style="edgeStyle=orthogonalEdgeStyle;rounded=0;orthogonalLoop=1;jettySize=auto;html=1;" edge="1" parent="CDbokZhid0h3c1UekMTh-308" source="PWZpDbweVa0cq_8GeGo4-75" target="PWZpDbweVa0cq_8GeGo4-46">
          <mxGeometry relative="1" as="geometry" />
        </mxCell>
        <mxCell id="PWZpDbweVa0cq_8GeGo4-75" value="&lt;div&gt;Notify other&lt;/div&gt;&lt;div&gt;educator&lt;br&gt;&lt;/div&gt;" style="points=[[0.145,0.145,0],[0.5,0,0],[0.855,0.145,0],[1,0.5,0],[0.855,0.855,0],[0.5,1,0],[0.145,0.855,0],[0,0.5,0]];shape=mxgraph.bpmn.event;html=1;verticalLabelPosition=bottom;labelBackgroundColor=#ffffff;verticalAlign=top;align=center;perimeter=ellipsePerimeter;outlineConnect=0;aspect=fixed;outline=throwing;symbol=message;" vertex="1" parent="CDbokZhid0h3c1UekMTh-308">
          <mxGeometry x="280.00117647058823" y="135" width="35" height="35" as="geometry" />
        </mxCell>
        <mxCell id="PWZpDbweVa0cq_8GeGo4-48" value="" style="points=[[0.145,0.145,0],[0.5,0,0],[0.855,0.145,0],[1,0.5,0],[0.855,0.855,0],[0.5,1,0],[0.145,0.855,0],[0,0.5,0]];shape=mxgraph.bpmn.event;html=1;verticalLabelPosition=bottom;labelBackgroundColor=#ffffff;verticalAlign=top;align=center;perimeter=ellipsePerimeter;outlineConnect=0;aspect=fixed;outline=end;symbol=terminate2;" vertex="1" parent="CDbokZhid0h3c1UekMTh-308">
          <mxGeometry x="370" y="52.5" width="30" height="30" as="geometry" />
        </mxCell>
        <mxCell id="PWZpDbweVa0cq_8GeGo4-106" style="edgeStyle=orthogonalEdgeStyle;rounded=0;orthogonalLoop=1;jettySize=auto;html=1;" edge="1" parent="CDbokZhid0h3c1UekMTh-308" source="PWZpDbweVa0cq_8GeGo4-46" target="PWZpDbweVa0cq_8GeGo4-45">
          <mxGeometry relative="1" as="geometry">
            <Array as="points">
              <mxPoint x="400" y="80" />
            </Array>
          </mxGeometry>
        </mxCell>
        <mxCell id="PWZpDbweVa0cq_8GeGo4-108" style="edgeStyle=orthogonalEdgeStyle;rounded=0;orthogonalLoop=1;jettySize=auto;html=1;" edge="1" parent="CDbokZhid0h3c1UekMTh-308" source="PWZpDbweVa0cq_8GeGo4-46" target="PWZpDbweVa0cq_8GeGo4-107">
          <mxGeometry relative="1" as="geometry">
            <Array as="points">
              <mxPoint x="395" y="190" />
            </Array>
          </mxGeometry>
        </mxCell>
        <mxCell id="PWZpDbweVa0cq_8GeGo4-46" value="" style="points=[[0.25,0.25,0],[0.5,0,0],[0.75,0.25,0],[1,0.5,0],[0.75,0.75,0],[0.5,1,0],[0.25,0.75,0],[0,0.5,0]];shape=mxgraph.bpmn.gateway2;html=1;verticalLabelPosition=bottom;labelBackgroundColor=#ffffff;verticalAlign=top;align=center;perimeter=rhombusPerimeter;outlineConnect=0;outline=catching;symbol=multiple;" vertex="1" parent="CDbokZhid0h3c1UekMTh-308">
          <mxGeometry x="370" y="127.5" width="50" height="50" as="geometry" />
        </mxCell>
        <mxCell id="PWZpDbweVa0cq_8GeGo4-109" style="edgeStyle=orthogonalEdgeStyle;rounded=0;orthogonalLoop=1;jettySize=auto;html=1;entryX=0.5;entryY=0;entryDx=0;entryDy=0;entryPerimeter=0;" edge="1" parent="CDbokZhid0h3c1UekMTh-308" source="PWZpDbweVa0cq_8GeGo4-45" target="PWZpDbweVa0cq_8GeGo4-47">
          <mxGeometry relative="1" as="geometry" />
        </mxCell>
        <mxCell id="PWZpDbweVa0cq_8GeGo4-45" value="&lt;div&gt;Receive &lt;br&gt;&lt;/div&gt;&lt;div&gt;positive response&lt;br&gt;&lt;/div&gt;" style="points=[[0.145,0.145,0],[0.5,0,0],[0.855,0.145,0],[1,0.5,0],[0.855,0.855,0],[0.5,1,0],[0.145,0.855,0],[0,0.5,0]];shape=mxgraph.bpmn.event;html=1;verticalLabelPosition=bottom;labelBackgroundColor=#ffffff;verticalAlign=top;align=center;perimeter=ellipsePerimeter;outlineConnect=0;aspect=fixed;outline=catching;symbol=message;" vertex="1" parent="CDbokZhid0h3c1UekMTh-308">
          <mxGeometry x="457" y="62" width="33" height="33" as="geometry" />
        </mxCell>
        <mxCell id="PWZpDbweVa0cq_8GeGo4-110" style="edgeStyle=orthogonalEdgeStyle;rounded=0;orthogonalLoop=1;jettySize=auto;html=1;" edge="1" parent="CDbokZhid0h3c1UekMTh-308" source="PWZpDbweVa0cq_8GeGo4-107" target="PWZpDbweVa0cq_8GeGo4-47">
          <mxGeometry relative="1" as="geometry" />
        </mxCell>
        <mxCell id="PWZpDbweVa0cq_8GeGo4-107" value="&lt;div&gt;Receive &lt;br&gt;&lt;/div&gt;&lt;div&gt;negative response&lt;br&gt;&lt;/div&gt;" style="points=[[0.145,0.145,0],[0.5,0,0],[0.855,0.145,0],[1,0.5,0],[0.855,0.855,0],[0.5,1,0],[0.145,0.855,0],[0,0.5,0]];shape=mxgraph.bpmn.event;html=1;verticalLabelPosition=bottom;labelBackgroundColor=#ffffff;verticalAlign=top;align=center;perimeter=ellipsePerimeter;outlineConnect=0;aspect=fixed;outline=catching;symbol=message;" vertex="1" parent="CDbokZhid0h3c1UekMTh-308">
          <mxGeometry x="457" y="170" width="33" height="33" as="geometry" />
        </mxCell>
        <mxCell id="PWZpDbweVa0cq_8GeGo4-112" style="edgeStyle=orthogonalEdgeStyle;rounded=0;orthogonalLoop=1;jettySize=auto;html=1;entryX=0;entryY=0.5;entryDx=0;entryDy=0;entryPerimeter=0;" edge="1" parent="CDbokZhid0h3c1UekMTh-308" source="PWZpDbweVa0cq_8GeGo4-47" target="PWZpDbweVa0cq_8GeGo4-111">
          <mxGeometry relative="1" as="geometry" />
        </mxCell>
        <mxCell id="PWZpDbweVa0cq_8GeGo4-47" value="" style="points=[[0.25,0.25,0],[0.5,0,0],[0.75,0.25,0],[1,0.5,0],[0.75,0.75,0],[0.5,1,0],[0.25,0.75,0],[0,0.5,0]];shape=mxgraph.bpmn.gateway2;html=1;verticalLabelPosition=bottom;labelBackgroundColor=#ffffff;verticalAlign=top;align=center;perimeter=rhombusPerimeter;outlineConnect=0;outline=none;symbol=none;gwType=exclusive;" vertex="1" parent="CDbokZhid0h3c1UekMTh-308">
          <mxGeometry x="540" y="137.5" width="30" height="30" as="geometry" />
        </mxCell>
        <mxCell id="PWZpDbweVa0cq_8GeGo4-111" value="&lt;div&gt;Notify educator &lt;br&gt;&lt;/div&gt;&lt;div&gt;of answer&lt;br&gt;&lt;/div&gt;" style="points=[[0.145,0.145,0],[0.5,0,0],[0.855,0.145,0],[1,0.5,0],[0.855,0.855,0],[0.5,1,0],[0.145,0.855,0],[0,0.5,0]];shape=mxgraph.bpmn.event;html=1;verticalLabelPosition=bottom;labelBackgroundColor=#ffffff;verticalAlign=top;align=center;perimeter=ellipsePerimeter;outlineConnect=0;aspect=fixed;outline=end;symbol=message;" vertex="1" parent="CDbokZhid0h3c1UekMTh-308">
          <mxGeometry x="620" y="137.5" width="30" height="30" as="geometry" />
        </mxCell>
        <mxCell id="PWZpDbweVa0cq_8GeGo4-59" style="edgeStyle=orthogonalEdgeStyle;rounded=0;orthogonalLoop=1;jettySize=auto;html=1;entryX=0.5;entryY=0;entryDx=0;entryDy=0;entryPerimeter=0;" edge="1" parent="CDbokZhid0h3c1UekMTh-214" source="PWZpDbweVa0cq_8GeGo4-55" target="PWZpDbweVa0cq_8GeGo4-58">
          <mxGeometry relative="1" as="geometry">
            <Array as="points">
              <mxPoint x="340" y="200" />
              <mxPoint x="56" y="200" />
            </Array>
          </mxGeometry>
        </mxCell>
        <mxCell id="PWZpDbweVa0cq_8GeGo4-100" style="edgeStyle=orthogonalEdgeStyle;rounded=0;orthogonalLoop=1;jettySize=auto;html=1;entryX=0.5;entryY=1;entryDx=0;entryDy=0;entryPerimeter=0;" edge="1" parent="CDbokZhid0h3c1UekMTh-214" source="PWZpDbweVa0cq_8GeGo4-44" target="PWZpDbweVa0cq_8GeGo4-72">
          <mxGeometry relative="1" as="geometry">
            <Array as="points">
              <mxPoint x="298" y="250" />
              <mxPoint x="398" y="250" />
            </Array>
          </mxGeometry>
        </mxCell>
        <mxCell id="PWZpDbweVa0cq_8GeGo4-124" style="edgeStyle=orthogonalEdgeStyle;rounded=0;orthogonalLoop=1;jettySize=auto;html=1;" edge="1" parent="CDbokZhid0h3c1UekMTh-214" source="PWZpDbweVa0cq_8GeGo4-111" target="PWZpDbweVa0cq_8GeGo4-113">
          <mxGeometry relative="1" as="geometry">
            <Array as="points">
              <mxPoint x="635" y="280" />
              <mxPoint x="556" y="280" />
            </Array>
          </mxGeometry>
        </mxCell>
        <mxCell id="PWZpDbweVa0cq_8GeGo4-77" value="Other Educator" style="swimlane;html=1;startSize=20;horizontal=0;" vertex="1" parent="1">
          <mxGeometry x="60" y="620" width="780" height="220" as="geometry" />
        </mxCell>
        <mxCell id="PWZpDbweVa0cq_8GeGo4-95" style="edgeStyle=orthogonalEdgeStyle;rounded=0;orthogonalLoop=1;jettySize=auto;html=1;entryX=0;entryY=0.5;entryDx=0;entryDy=0;entryPerimeter=0;" edge="1" parent="PWZpDbweVa0cq_8GeGo4-77" source="PWZpDbweVa0cq_8GeGo4-92" target="PWZpDbweVa0cq_8GeGo4-94">
          <mxGeometry relative="1" as="geometry" />
        </mxCell>
        <mxCell id="PWZpDbweVa0cq_8GeGo4-92" value="&lt;div&gt;Receive&lt;/div&gt;&lt;div&gt;notification&lt;br&gt;&lt;/div&gt;" style="points=[[0.145,0.145,0],[0.5,0,0],[0.855,0.145,0],[1,0.5,0],[0.855,0.855,0],[0.5,1,0],[0.145,0.855,0],[0,0.5,0]];shape=mxgraph.bpmn.event;html=1;verticalLabelPosition=bottom;labelBackgroundColor=#ffffff;verticalAlign=top;align=center;perimeter=ellipsePerimeter;outlineConnect=0;aspect=fixed;outline=catching;symbol=message;" vertex="1" parent="PWZpDbweVa0cq_8GeGo4-77">
          <mxGeometry x="40" y="88.5" width="33" height="33" as="geometry" />
        </mxCell>
        <mxCell id="PWZpDbweVa0cq_8GeGo4-97" style="edgeStyle=orthogonalEdgeStyle;rounded=0;orthogonalLoop=1;jettySize=auto;html=1;" edge="1" parent="PWZpDbweVa0cq_8GeGo4-77" source="PWZpDbweVa0cq_8GeGo4-94" target="PWZpDbweVa0cq_8GeGo4-96">
          <mxGeometry relative="1" as="geometry">
            <Array as="points">
              <mxPoint x="135" y="57" />
            </Array>
          </mxGeometry>
        </mxCell>
        <mxCell id="PWZpDbweVa0cq_8GeGo4-99" style="edgeStyle=orthogonalEdgeStyle;rounded=0;orthogonalLoop=1;jettySize=auto;html=1;" edge="1" parent="PWZpDbweVa0cq_8GeGo4-77" source="PWZpDbweVa0cq_8GeGo4-94" target="PWZpDbweVa0cq_8GeGo4-98">
          <mxGeometry relative="1" as="geometry">
            <Array as="points">
              <mxPoint x="135" y="160" />
            </Array>
          </mxGeometry>
        </mxCell>
        <mxCell id="PWZpDbweVa0cq_8GeGo4-94" value="" style="points=[[0.25,0.25,0],[0.5,0,0],[0.75,0.25,0],[1,0.5,0],[0.75,0.75,0],[0.5,1,0],[0.25,0.75,0],[0,0.5,0]];shape=mxgraph.bpmn.gateway2;html=1;verticalLabelPosition=bottom;labelBackgroundColor=#ffffff;verticalAlign=top;align=center;perimeter=rhombusPerimeter;outlineConnect=0;outline=none;symbol=none;gwType=exclusive;" vertex="1" parent="PWZpDbweVa0cq_8GeGo4-77">
          <mxGeometry x="120" y="90" width="30" height="30" as="geometry" />
        </mxCell>
        <mxCell id="PWZpDbweVa0cq_8GeGo4-120" style="edgeStyle=orthogonalEdgeStyle;rounded=0;orthogonalLoop=1;jettySize=auto;html=1;entryX=0.5;entryY=0;entryDx=0;entryDy=0;entryPerimeter=0;" edge="1" parent="PWZpDbweVa0cq_8GeGo4-77" source="PWZpDbweVa0cq_8GeGo4-96" target="PWZpDbweVa0cq_8GeGo4-119">
          <mxGeometry relative="1" as="geometry" />
        </mxCell>
        <mxCell id="PWZpDbweVa0cq_8GeGo4-96" value="&lt;div&gt;Accept&lt;/div&gt;&lt;div&gt;permission&lt;br&gt;&lt;/div&gt;" style="points=[[0.145,0.145,0],[0.5,0,0],[0.855,0.145,0],[1,0.5,0],[0.855,0.855,0],[0.5,1,0],[0.145,0.855,0],[0,0.5,0]];shape=mxgraph.bpmn.event;html=1;verticalLabelPosition=bottom;labelBackgroundColor=#ffffff;verticalAlign=top;align=center;perimeter=ellipsePerimeter;outlineConnect=0;aspect=fixed;outline=throwing;symbol=message;" vertex="1" parent="PWZpDbweVa0cq_8GeGo4-77">
          <mxGeometry x="170.00117647058823" y="40" width="35" height="35" as="geometry" />
        </mxCell>
        <mxCell id="PWZpDbweVa0cq_8GeGo4-121" style="edgeStyle=orthogonalEdgeStyle;rounded=0;orthogonalLoop=1;jettySize=auto;html=1;" edge="1" parent="PWZpDbweVa0cq_8GeGo4-77" source="PWZpDbweVa0cq_8GeGo4-98" target="PWZpDbweVa0cq_8GeGo4-119">
          <mxGeometry relative="1" as="geometry" />
        </mxCell>
        <mxCell id="PWZpDbweVa0cq_8GeGo4-98" value="&lt;div&gt;Refuse&lt;/div&gt;&lt;div&gt;permission&lt;br&gt;&lt;/div&gt;" style="points=[[0.145,0.145,0],[0.5,0,0],[0.855,0.145,0],[1,0.5,0],[0.855,0.855,0],[0.5,1,0],[0.145,0.855,0],[0,0.5,0]];shape=mxgraph.bpmn.event;html=1;verticalLabelPosition=bottom;labelBackgroundColor=#ffffff;verticalAlign=top;align=center;perimeter=ellipsePerimeter;outlineConnect=0;aspect=fixed;outline=throwing;symbol=message;" vertex="1" parent="PWZpDbweVa0cq_8GeGo4-77">
          <mxGeometry x="170.00117647058823" y="140" width="35" height="35" as="geometry" />
        </mxCell>
        <mxCell id="PWZpDbweVa0cq_8GeGo4-123" style="edgeStyle=orthogonalEdgeStyle;rounded=0;orthogonalLoop=1;jettySize=auto;html=1;entryX=0;entryY=0.5;entryDx=0;entryDy=0;entryPerimeter=0;" edge="1" parent="PWZpDbweVa0cq_8GeGo4-77" source="PWZpDbweVa0cq_8GeGo4-119" target="PWZpDbweVa0cq_8GeGo4-122">
          <mxGeometry relative="1" as="geometry" />
        </mxCell>
        <mxCell id="PWZpDbweVa0cq_8GeGo4-119" value="" style="points=[[0.25,0.25,0],[0.5,0,0],[0.75,0.25,0],[1,0.5,0],[0.75,0.75,0],[0.5,1,0],[0.25,0.75,0],[0,0.5,0]];shape=mxgraph.bpmn.gateway2;html=1;verticalLabelPosition=bottom;labelBackgroundColor=#ffffff;verticalAlign=top;align=center;perimeter=rhombusPerimeter;outlineConnect=0;outline=none;symbol=none;gwType=exclusive;" vertex="1" parent="PWZpDbweVa0cq_8GeGo4-77">
          <mxGeometry x="250" y="90" width="30" height="30" as="geometry" />
        </mxCell>
        <mxCell id="PWZpDbweVa0cq_8GeGo4-122" value="" style="points=[[0.145,0.145,0],[0.5,0,0],[0.855,0.145,0],[1,0.5,0],[0.855,0.855,0],[0.5,1,0],[0.145,0.855,0],[0,0.5,0]];shape=mxgraph.bpmn.event;html=1;verticalLabelPosition=bottom;labelBackgroundColor=#ffffff;verticalAlign=top;align=center;perimeter=ellipsePerimeter;outlineConnect=0;aspect=fixed;outline=end;symbol=terminate2;" vertex="1" parent="PWZpDbweVa0cq_8GeGo4-77">
          <mxGeometry x="360" y="90" width="30" height="30" as="geometry" />
        </mxCell>
        <mxCell id="PWZpDbweVa0cq_8GeGo4-93" style="edgeStyle=orthogonalEdgeStyle;rounded=0;orthogonalLoop=1;jettySize=auto;html=1;" edge="1" parent="1" source="PWZpDbweVa0cq_8GeGo4-75" target="PWZpDbweVa0cq_8GeGo4-92">
          <mxGeometry relative="1" as="geometry">
            <Array as="points">
              <mxPoint x="358" y="580" />
              <mxPoint x="116" y="580" />
            </Array>
          </mxGeometry>
        </mxCell>
        <mxCell id="PWZpDbweVa0cq_8GeGo4-117" style="edgeStyle=orthogonalEdgeStyle;rounded=0;orthogonalLoop=1;jettySize=auto;html=1;" edge="1" parent="1" source="PWZpDbweVa0cq_8GeGo4-96" target="PWZpDbweVa0cq_8GeGo4-45">
          <mxGeometry relative="1" as="geometry">
            <Array as="points">
              <mxPoint x="248" y="590" />
              <mxPoint x="490" y="590" />
              <mxPoint x="490" y="400" />
              <mxPoint x="534" y="400" />
            </Array>
          </mxGeometry>
        </mxCell>
        <mxCell id="PWZpDbweVa0cq_8GeGo4-118" style="edgeStyle=orthogonalEdgeStyle;rounded=0;orthogonalLoop=1;jettySize=auto;html=1;" edge="1" parent="1" source="PWZpDbweVa0cq_8GeGo4-98" target="PWZpDbweVa0cq_8GeGo4-107">
          <mxGeometry relative="1" as="geometry">
            <Array as="points">
              <mxPoint x="248" y="740" />
              <mxPoint x="534" y="740" />
            </Array>
          </mxGeometry>
        </mxCell>
      </root>
    </mxGraphModel>
  </diagram>
</mxfile>
